<svg width="24" height="24" viewBox="0 0 24 24" fill="none" xmlns="http://www.w3.org/2000/svg">
<rect width="24" height="24" rx="12" fill="#060C26"/>
<path d="M18.3602 5.63923C16.959 4.23644 15.1336 3.33571 13.1678 3.07697C11.202 2.81822 9.20574 3.21595 7.4892 4.20835" stroke="#01C7EA" stroke-width="2" stroke-linecap="round" stroke-linejoin="round"/>
<path d="M4.7984 6.60214H4.8074" stroke="#01C7EA" stroke-width="2" stroke-linecap="round" stroke-linejoin="round"/>
<path d="M3.25953 9.85988C2.92215 11.2341 2.91359 12.6685 3.23454 14.0467C3.5555 15.4249 4.19692 16.7079 5.10674 17.7917C6.01656 18.8755 7.16914 19.7294 8.47088 20.2842C9.77263 20.839 11.1869 21.079 12.5988 20.9847C14.0107 20.8905 15.3804 20.4646 16.5969 19.7416C17.8133 19.0187 18.8421 18.0191 19.5998 16.824C20.3574 15.6289 20.8226 14.2719 20.9574 12.8633C21.0923 11.4547 20.8931 10.0342 20.376 8.71698" stroke="#01C7EA" stroke-width="2" stroke-linecap="round" stroke-linejoin="round"/>
<path d="M15.8134 8.18602C15.2955 7.66511 14.6768 7.25535 13.9951 6.98181C13.3134 6.70827 12.583 6.5767 11.8487 6.59515C11.1144 6.6136 10.3915 6.78168 9.72442 7.08911C9.05731 7.39655 8.45993 7.83686 7.96885 8.38312C7.47777 8.92938 7.10331 9.57009 6.86838 10.2661C6.63346 10.962 6.543 11.6986 6.60255 12.4307C6.66211 13.1629 6.87041 13.8751 7.21473 14.524C7.55905 15.1728 8.03213 15.7446 8.60504 16.2043" stroke="#01C7EA" stroke-width="2" stroke-linecap="round" stroke-linejoin="round"/>
<path d="M11.9978 17.4012H12.0068" stroke="#01C7EA" stroke-width="2" stroke-linecap="round" stroke-linejoin="round"/>
<path d="M17.3883 11.6957C17.4373 12.5519 17.2816 13.4074 16.9342 14.1914C16.5868 14.9754 16.0576 15.6654 15.3905 16.2043" stroke="#01C7EA" stroke-width="2" stroke-linecap="round" stroke-linejoin="round"/>
<path d="M11.9978 13.8015C12.9918 13.8015 13.7976 12.9957 13.7976 12.0017C13.7976 11.0077 12.9918 10.2018 11.9978 10.2018C11.0038 10.2018 10.1979 11.0077 10.1979 12.0017C10.1979 12.9957 11.0038 13.8015 11.9978 13.8015Z" stroke="#01C7EA" stroke-width="2" stroke-linecap="round" stroke-linejoin="round"/>
<path d="M13.2667 10.7328L18.3602 5.63922" stroke="#01C7EA" stroke-width="2" stroke-linecap="round" stroke-linejoin="round"/>
</svg>
